<svg width="400" height="400" viewBox="0 0 400 400" fill="none" xmlns="http://www.w3.org/2000/svg">
<circle cx="200" cy="200" r="200" fill="#1E1E1E"/>
<path d="M61.4342 275H79.4342C83.9342 275 86.1842 272.75 86.1842 268.25V119.75C86.1842 117.417 85.6009 115.75 84.4342 114.75C83.4342 113.583 81.7676 113 79.4342 113H61.4342V105H132.684V113H115.934C113.601 113 111.851 113.583 110.684 114.75C109.684 115.75 109.184 117.417 109.184 119.75V197.25L166.684 138.5C168.851 136.167 170.434 133.833 171.434 131.5C172.434 129.167 172.934 126.5 172.934 123.5C172.934 120.5 171.851 118 169.684 116C167.518 114 164.851 113 161.684 113H154.934V105H220.934V113H210.934C205.434 113 197.934 117.917 188.434 127.75L146.434 170.25L197.434 264C199.601 268.167 202.018 271.083 204.684 272.75C207.351 274.25 211.184 275 216.184 275H224.434V283H148.934V275H165.684C167.518 275 169.101 274.5 170.434 273.5C171.768 272.333 172.434 271.083 172.434 269.75C172.434 268.75 172.268 267.667 171.934 266.5C171.601 265.167 171.184 264.167 170.684 263.5L129.934 187L109.184 208V268.25C109.184 272.75 111.434 275 115.934 275H132.684V283H61.4342V275Z" fill="url(#paint0_linear_30_40)"/>
<path d="M209.212 275H227.212C231.712 275 233.962 272.75 233.962 268.25V119.75C233.962 117.417 233.379 115.75 232.212 114.75C231.212 113.583 229.545 113 227.212 113H209.212V105H292.712C304.379 105 314.712 107 323.712 111C332.879 114.833 339.962 120.333 344.962 127.5C350.129 134.5 352.712 142.5 352.712 151.5C352.712 160.667 350.129 168.833 344.962 176C339.962 183.167 332.879 188.833 323.712 193C314.712 197 304.379 199 292.712 199H256.962V268.25C256.962 270.583 257.462 272.333 258.462 273.5C259.462 274.5 261.212 275 263.712 275H285.712V283H209.212V275ZM295.962 191C304.962 191 312.212 187.167 317.712 179.5C323.379 171.667 326.212 162.333 326.212 151.5C326.212 140.667 323.462 131.583 317.962 124.25C312.462 116.75 305.129 113 295.962 113H263.712C261.379 113 259.629 113.583 258.462 114.75C257.462 115.75 256.962 117.417 256.962 119.75V191H295.962Z" fill="url(#paint1_linear_30_40)"/>
<defs>
<linearGradient id="paint0_linear_30_40" x1="290.072" y1="155.427" x2="151.747" y2="155.967" gradientUnits="userSpaceOnUse">
<stop stop-color="#E1AF19"/>
<stop offset="1" stop-color="white"/>
</linearGradient>
<linearGradient id="paint1_linear_30_40" x1="333.741" y1="166.731" x2="218.761" y2="166.731" gradientUnits="userSpaceOnUse">
<stop stop-color="#D9A90D"/>
<stop offset="1" stop-color="white"/>
</linearGradient>
</defs>
</svg>
